<?xml version="1.0" standalone="no"?>
<!DOCTYPE svg PUBLIC "-//W3C//DTD SVG 20010904//EN"
 "http://www.w3.org/TR/2001/REC-SVG-20010904/DTD/svg10.dtd">
<svg version="1.0" xmlns="http://www.w3.org/2000/svg"
 width="210.000000pt" height="210.000000pt" viewBox="0 0 210.000000 210.000000"
 preserveAspectRatio="xMidYMid meet">
<metadata>
Created by potrace 1.11, written by Peter Selinger 2001-2013
</metadata>
<g transform="translate(0.000000,210.000000) scale(0.100000,-0.100000)"
fill="#000000" stroke="none">
<path d="M1717 1770 c-21 -4 -50 -16 -66 -27 -21 -16 -32 -18 -45 -11 -77 43
-308 -77 -452 -235 -138 -152 -204 -294 -204 -440 0 -133 113 -183 233 -103
29 19 87 71 130 114 42 44 77 76 77 71 0 -4 -27 -64 -59 -133 -47 -99 -74
-141 -125 -198 -174 -193 -229 -316 -181 -408 16 -31 34 -40 89 -42 48 -2 69
19 118 117 132 261 248 399 541 643 78 65 87 77 87 107 0 44 -16 85 -33 85
-25 0 -142 -94 -254 -203 -62 -61 -113 -107 -113 -103 0 28 305 675 331 701
14 15 11 40 -9 58 -10 10 -20 16 -23 16 -2 -1 -21 -5 -42 -9z m-147 -146 c0
-11 -144 -221 -208 -303 -87 -111 -237 -264 -254 -258 -41 14 30 198 125 322
41 54 123 132 172 163 98 63 165 94 165 76z"/>
<path d="M912 1663 c-19 -9 -40 -27 -49 -39 l-15 -23 -28 21 c-24 17 -37 20
-79 14 -254 -34 -602 -445 -579 -684 13 -137 104 -187 227 -125 32 16 87 60
138 111 78 79 83 82 68 46 -185 -436 -231 -581 -205 -644 13 -31 54 -60 84
-60 24 0 89 63 197 192 117 140 133 163 125 183 -6 18 -65 55 -86 55 -8 0 -38
-25 -67 -56 -29 -31 -53 -53 -53 -50 0 11 183 462 284 699 58 136 112 269 120
295 23 78 -8 102 -82 65z m-109 -150 c6 -10 -85 -166 -143 -245 -25 -34 -92
-110 -151 -168 -107 -109 -157 -141 -179 -115 -15 18 16 108 76 215 84 151
277 320 365 320 15 0 30 -3 32 -7z"/>
</g>
</svg>
